<svg width="190" height="75" viewBox="0 0 190 75" fill="none" xmlns="http://www.w3.org/2000/svg">
<path d="M130.11 3.3265C87.6247 4.29582 44.3195 4.78034 1.8278 5.44688C0.696583 16.1934 3.13876 26.354 4.26623 37.0253C5.3305 47.0984 5.20274 56.9109 5.1901 66.9982C5.18987 67.1881 4.61218 72.3509 6.76524 72.6021C9.92538 72.9707 13.1279 72.4869 16.3069 72.3597C24.235 72.0426 32.158 71.6045 40.0854 71.2693C68.9011 70.0505 94.4911 68.9196 123.446 68.6945C171.195 68.3233 142.196 68.908 177.576 70.2091C180.119 70.3026 182.768 70.8047 185.21 70.0879C189.418 68.8525 186.86 61.2078 186.724 59.8344C185.05 42.9336 184.281 25.4374 179.742 8.99092C178.484 4.4329 177.549 2.31907 172.73 2.29661C158.519 2.23039 144.317 3.00237 130.11 3.3265Z" fill="white" stroke="black" stroke-width="3" stroke-linecap="round"/>
<path d="M184.907 6.90083C184.377 6.97085 183.847 7.03098 183.316 7.08285C183.33 7.4666 183.347 7.85024 183.362 8.23364C183.939 22.8745 185.385 37.4628 186.088 52.095C186.276 56.0185 185.79 59.8058 185.906 63.6662C185.921 64.1646 185.92 65.0394 185.952 65.8283C186.608 65.9798 186.923 66.3982 186.452 67.3011C186.115 67.945 185.999 66.9777 185.952 65.8283C185.92 65.0394 185.921 64.1646 185.906 63.6662C185.79 59.8058 186.276 56.0185 186.088 52.095C185.385 37.4628 183.939 22.8745 183.362 8.23364C183.347 7.85024 183.33 7.4666 183.316 7.08285C183.278 6.07792 183.253 5.07228 183.301 4.06862C183.317 3.7449 183.28 3.16067 183.604 3.14475C184.368 3.10719 184.555 4.35924 184.876 5.05308C184.878 5.0562 185.578 6.81196 184.907 6.90083Z" fill="white"/>
<path d="M8.09801 7.3552C53.644 7.07706 99.194 7.75857 144.741 7.6884C154.666 7.67311 164.593 7.6558 174.517 7.46122C177.985 7.39322 181.468 7.35569 184.907 6.90083C185.578 6.81196 184.878 5.0562 184.876 5.05308C184.555 4.35924 184.368 3.10719 183.604 3.14475C183.28 3.16067 183.317 3.7449 183.301 4.06862C183.235 5.45554 183.307 6.84623 183.362 8.23364C183.939 22.8745 185.385 37.4628 186.088 52.095C186.276 56.0185 185.79 59.8058 185.906 63.6662C185.943 64.8908 185.884 68.3869 186.452 67.3011C187.909 64.5132 181.855 66.344 181.484 66.3924C165.58 68.4625 149.604 70.0973 133.624 71.451C103.334 74.0168 73.0847 71.7684 42.7509 71.6933C35.9353 71.6765 29.1198 71.6872 22.3045 71.7539C18.0909 71.7951 13.6673 71.9652 9.49139 71.2692C4.43962 70.4273 4.64235 65.1157 4.34192 60.9097C3.59393 50.4379 3.57443 39.8938 2.94853 29.4071C2.47071 21.4013 2.38496 13.4462 2.91824 5.44686" stroke="black" stroke-width="3" stroke-linecap="round"/>
</svg>
