<svg width="180" height="67" viewBox="0 0 180 67" fill="none" xmlns="http://www.w3.org/2000/svg">
<path d="M122.258 1.10887C82.0712 2.1009 41.8856 3.91879 1.69509 2.29947C2.23288 5.69225 1.20603 10.2985 1.06336 13.4373C0.617285 23.2509 0.69082 33.0604 0.821028 42.8802C0.893435 48.3409 0.721487 53.9735 1.71461 59.3736C2.4104 63.157 3.53591 65.6396 7.46991 66.28C13.1036 67.1971 18.9227 67.0211 24.5692 66.3557C31.1091 65.5851 37.4743 64.5752 44.0766 64.3414C50.8963 64.0998 57.7309 64.1394 64.5533 64.1445C88.3794 64.1622 112.215 64.6402 136.04 64.3868L136.247 64.3846C144.54 64.2965 158.155 64.1519 166.907 62.842C169.164 62.5041 173.408 61.7191 175.206 59.4494C175.541 59.0271 174.978 55.8757 174.994 55.451C175.213 49.7064 175.78 43.9597 176.373 38.2457C177.373 28.5893 178.88 18.9541 179.25 9.24201C179.473 3.39781 180.73 2.12059 172.844 1.03315C162.369 -0.411149 128.348 0.95852 122.258 1.10887Z" fill="#D0D0D0"/>
</svg>
