<svg width="29" height="34" viewBox="0 0 29 34" fill="none" xmlns="http://www.w3.org/2000/svg">
<path d="M16.8096 23.8889C16.2498 26.1962 15.9761 29.2877 15.8572 31.6667C15.8572 24.4588 10.3489 18.3216 3.47622 16.6931C2.97542 16.5744 1.44039 16.4286 1.95505 16.4286H2.28574C3.62855 16.4286 4.98862 16.4579 6.32013 16.2566C11.4181 15.486 13.2648 11.7158 14.0847 6.8783C14.1596 6.43607 14.876 2.05824 14.8916 2.18253C15.0078 3.11252 14.8991 4.01054 15.1164 4.94708C16.0172 8.82916 17.9899 11.8771 21.5979 13.6508C23.205 14.4408 28.2432 15.9524 26.4524 15.9524C25.0924 15.9524 23.0376 17.4701 22.008 18.0952C19.7169 19.4862 17.4718 21.1593 16.8096 23.8889Z" fill="white" stroke="black" stroke-width="3" stroke-linecap="round" stroke-linejoin="round"/>
</svg>
