<svg width="12" height="20" viewBox="0 0 12 20" fill="none" xmlns="http://www.w3.org/2000/svg">
<path d="M7.84744 18.1113C7.84744 17.6184 7.8645 17.1198 7.89211 16.6198C7.88421 16.2065 7.83833 15.801 7.70194 15.4129C7.24018 14.0986 5.99321 12.697 4.93739 11.8414C4.20867 11.2509 2.50564 10.7745 1.99997 10.016C1.9874 9.99718 3.18918 9.68028 3.32363 9.52662C4.73479 7.91387 5.99909 6.03133 6.31305 3.87847C6.50575 2.5571 6.40121 0.822671 6.65697 3.1245C6.80794 4.48326 7.74578 7.63716 9.06438 8.29646C10.4795 9.00401 10.246 8.99903 9.4612 10.307C8.80168 11.4062 8.21634 12.7175 8.09877 14.0107L8.09409 14.0622C8.01756 14.9039 7.93937 15.7638 7.89211 16.6198C7.9015 17.1113 7.85715 17.6138 7.84744 18.1113Z" fill="white"/>
<path d="M7.84744 18.1113C7.84744 16.7576 7.97611 15.36 8.09877 14.0107C8.21634 12.7175 8.80168 11.4062 9.4612 10.307C10.246 8.99903 10.4795 9.00401 9.06438 8.29646C7.74578 7.63716 6.80794 4.48326 6.65697 3.1245C6.40121 0.822671 6.50575 2.5571 6.31305 3.87847C5.99909 6.03133 4.73479 7.91387 3.32363 9.52662C3.18918 9.68028 1.9874 9.99718 1.99997 10.016C2.50564 10.7745 4.20867 11.2509 4.93739 11.8414C5.99321 12.697 7.24018 14.0986 7.70194 15.4129C8.00056 16.2628 7.86531 17.1956 7.84744 18.1113Z" stroke="black" stroke-width="3" stroke-linecap="round" stroke-linejoin="round"/>
</svg>
