<svg width="115" height="46" viewBox="0 0 115 46" fill="none" xmlns="http://www.w3.org/2000/svg">
<path d="M18.4047 7.3559C18.2056 7.3559 17.9073 7.29836 17.7235 7.3559C11.4577 9.31792 5.65949 15.6353 3.63405 21.7322C1.13601 29.2517 6.41064 33.9781 12.6147 37.0047C17.194 39.2387 21.6323 39.9445 26.6325 39.9445M35.5056 5.25861C35.5056 10.7759 35.8598 16.3133 36.0792 21.8218C36.3324 28.1785 36.4571 34.5733 36.9576 40.9125M50.1866 29.1354C50.1866 29.6555 50.1885 30.1749 50.1956 30.695C50.2443 34.2513 49.8094 38.2199 50.5093 41.7192M50.6706 17.3584C50.1374 17.4176 49.8674 19.2857 50.5093 17.6811M67.1263 26.8768C66.2739 26.8768 65.7025 27.1312 64.8497 27.4325C61.763 28.5232 57.6787 30.3621 57.6168 34.2621C57.592 35.8235 58.7766 36.8909 59.9381 37.7576C61.084 38.6126 62.993 39.705 64.312 40.2493C69.6382 42.447 63.3928 39.6627 67.9329 41.0739M77.1287 3C77.3364 6.87685 77.7822 10.773 78.1146 14.6337C78.6029 20.3039 79.2754 28.162 79.7458 33.8678C79.886 35.5672 80.1062 37.5144 80.2401 39.4226M80.2401 39.4226C80.3092 40.4089 80.3553 41.3848 80.3553 42.3107C80.3553 42.5211 80.2913 43.4535 80.1223 42.6154C79.9136 41.5808 79.9872 40.4992 80.2401 39.4226ZM80.2401 39.4226C80.5981 37.8982 81.3154 36.3837 82.0996 35.0265M82.0996 35.0265C82.5208 34.2975 82.9613 33.6138 83.3758 32.9984C83.7584 32.4302 84.1809 31.8273 84.6405 31.2285M82.0996 35.0265C81.9935 34.9402 81.9087 34.8662 81.8521 34.8089C81.3219 34.2718 82.924 32.6828 84.6405 31.2285M82.0996 35.0265C82.9176 35.6921 84.999 37.0878 85.1235 37.175C87.3212 38.7143 89.4745 40.309 91.6484 41.8805M84.6405 31.2285C85.8302 29.6788 87.2695 28.1565 88.9148 27.3339C89.2309 27.1759 89.2363 27.1995 89.5153 27.1995C90.1752 27.1995 88.5552 28.1068 88.0454 28.526C87.6935 28.8152 86.1243 29.9715 84.6405 31.2285ZM112.299 4.45197C112.208 5.26783 111.515 6.36776 111.331 7.15872C109.52 14.9156 108.136 23.5957 109.072 31.5554M108.104 40.5898C107.421 41.3587 109.233 42.7632 109.233 41.3965" stroke="black" stroke-width="5" stroke-linecap="round"/>
</svg>
